<svg width="44" height="44" viewBox="0 0 44 44" fill="none" xmlns="http://www.w3.org/2000/svg">
	<g clip-path="url(#clip0_70_26322)">
		<path d="M10.9336 41.1008C13.8809 38.4939 17.7555 36.9116 21.9996 36.9116C26.2438 36.9116 30.1183 38.4939 33.0656 41.1008" stroke="#2962FF" stroke-width="2" />
		<circle cx="22" cy="17.6602" r="6" stroke="#2962FF" stroke-width="2" />
		<path d="M11.7799 6.04401L16.5407 3.29534L20.5381 6.10505L23.2671 6.04931L27.3856 3.07382L32.0354 5.63026L31.4192 10.3468L32.6032 12.753L37.266 14.6899L37.155 19.995L32.4071 22.124L31.1214 24.5808L31.5407 29.2761L26.7799 32.0248L22.7825 29.2151L20.0535 29.2708L15.9351 32.2463L11.2852 29.6899L11.9014 24.9734L10.7174 22.5671L6.05464 20.6303L6.16562 15.3251L10.1407 13.5426L12.1992 10.7394L11.7799 6.04401Z" stroke="#2962FF" stroke-width="2" />
	</g>
	<defs>
		<clip-path id="clip0_70_26322">
			<rect width="44" height="44" fill="white" />
		</clip-path>
	</defs>
</svg>