<svg width="91" height="56" viewBox="0 0 91 56" fill="none" xmlns="http://www.w3.org/2000/svg">
	<path d="M48.1676 33.937L37.2241 23.8881" stroke="currentColor" stroke-width="4" />
	<path d="M26.9308 23.8881L11.1816 38.6374" stroke="currentColor" stroke-width="4" />
	<circle cx="31.5" cy="20.5004" r="6.5" stroke="currentColor" stroke-width="4" />
	<circle cx="53.5" cy="36.5004" r="6.5" stroke="currentColor" stroke-width="4" />
	<path fill-rule="evenodd" clip-rule="evenodd" d="M85.493 1.91812C83.8392 6.03329 81.1457 11.2735 77.5191 16.2552C72.4701 23.1907 65.8202 29.3408 57.9463 31.4941L59.0015 35.3524C68.1374 32.8539 75.4658 25.872 80.7529 18.6094C85.4387 12.1729 88.6842 5.29286 90.2646 0.532227L85.493 1.91812Z" fill="currentColor" />
	<path d="M43.4691 53.3141C66.8577 53.3141 85.3465 30.1549 83.4261 9.3265C73.0747 15.3001 64.8363 15.6428 55.512 9.88183C55.512 12.5044 55.512 15.4099 56.3553 18.3799C53.5811 16.9762 48.2286 12.1885 46.2242 6.53225C15.8313 -0.172399 2.45996 25.0576 2.45996 25.0576C2.45996 25.0576 5.51875 39.8404 24.9795 49.9563C24.9795 49.9563 34.1367 48.6822 39.5719 44.9398C38.809 48.2054 37.1662 51.0133 35.2942 52.7877C37.7077 53.106 40.736 53.4334 43.4691 53.3141Z" stroke="currentColor" stroke-width="4" />
</svg>