<svg width="106" height="71" viewBox="0 0 106 71" fill="none" xmlns="http://www.w3.org/2000/svg"><path d="M100.44 6.9c-9.28 24.62-23.46 35.74-34.1 39.28a7.14 7.14 0 0 1-6.97 6.13A7.19 7.19 0 0 1 52.3 45c0-1.15.25-2.24.7-3.2L42.89 31.3a6.87 6.87 0 0 1-8.6-.23L9.03 50.57c5.08 6.66 11.59 12.13 18.82 15.48l.25.12h.32a5.24 5.24 0 0 0 .38-.02c.26-.01.62-.05 1.09-.1a25.1 25.1 0 0 0 3.86-.86 35.5 35.5 0 0 0 9.7-4.72 17.43 17.43 0 0 1-6.47 8.78l2.9.6c12.63 2.62 27.47-1.39 38.96-10.98 10.66-8.9 18.38-21.81 18.85-39.45 3.64-6.42 6.37-14.6 7.67-18.5l.07-.19-3.2 1.5a81.42 81.42 0 0 1-1.8 4.68z" fill="#2196F3"/><path d="M7.41 48.35a55.56 55.56 0 0 1-7.2-14.53L0 33.18l.3-.58C11.97 10.77 37.87 2.4 57.9 10.03l.76.3.11.87a21.68 21.68 0 0 0 3.15 9.02 19.13 19.13 0 0 0 3.32 3.6c-3-6.53-2.35-11.61-2.35-11.61l1.86 1.2c8.37 5.04 19.78 6.42 29.5.44-8.53 17.8-19.57 26.35-28.02 29.43a7.12 7.12 0 0 0-6.86-5.6 6.9 6.9 0 0 0-4.72 1.87l-9.94-10.3a7.47 7.47 0 0 0 1.07-3.86 7.19 7.19 0 0 0-7.06-7.32 7.19 7.19 0 0 0-7.06 7.32c0 1.29.32 2.5.89 3.55L7.4 48.35z" fill="#2196F3"/><path d="M43.1 25.39c0 2.5-1.97 4.52-4.38 4.52a4.45 4.45 0 0 1-4.37-4.52c0-2.5 1.96-4.53 4.37-4.53a4.45 4.45 0 0 1 4.37 4.53zM63.6 45a4.39 4.39 0 0 1-4.23 4.52A4.39 4.39 0 0 1 55.13 45a4.39 4.39 0 0 1 4.24-4.53c2.21 0 4.24 1.9 4.24 4.53z" fill="#2196F3"/></svg>
