<svg width="45" height="44" viewBox="0 0 45 44" fill="none" xmlns="http://www.w3.org/2000/svg">
<g clip-path="url(#clip0_93_22408)">
<path d="M11.1836 41.1008C14.1309 38.4939 18.0055 36.9116 22.2496 36.9116C26.4938 36.9116 30.3683 38.4939 33.3156 41.1008" stroke="#2962FF" stroke-width="2"/>
<circle cx="22.25" cy="17.6602" r="6" stroke="#2962FF" stroke-width="2"/>
<path d="M12.0299 6.04413L16.7907 3.29547L20.7881 6.10517L23.5171 6.04943L27.6356 3.07394L32.2854 5.63038L31.6692 10.3469L32.8532 12.7532L37.516 14.69L37.405 19.9951L32.6571 22.1241L31.3714 24.5809L31.7907 29.2762L27.0299 32.0249L23.0325 29.2152L20.3035 29.2709L16.1851 32.2464L11.5352 29.69L12.1514 24.9735L10.9674 22.5672L6.30464 20.6304L6.41562 15.3253L10.3907 13.5427L12.4492 10.7395L12.0299 6.04413Z" stroke="#2962FF" stroke-width="2"/>
</g>
<defs>
<clipPath id="clip0_93_22408">
<rect width="44" height="44" fill="white" transform="translate(0.25)"/>
</clipPath>
</defs>
</svg>
