<svg width="111" height="103" viewBox="0 0 111 103" fill="none" xmlns="http://www.w3.org/2000/svg">
<path fill-rule="evenodd" clip-rule="evenodd" d="M10.9416 10.0063C-1.10293 22.0508 -3.60391 41.6017 8.08095 55.0113L8.06184 55.0298L8.35833 55.3255C9.17864 56.2426 10.0664 57.13 11.0233 57.9833L11.0534 58.0134L11.0564 58.0164C12.2644 59.2263 13.3137 60.308 14.2541 61.2774L14.3803 61.4075C15.8416 62.9141 17.1514 64.2645 18.3054 65.2643L53.1806 100.14L56.009 102.968L58.8375 100.14L98.4436 60.5334C99.4086 59.671 100.34 58.7383 101.234 57.7349C113.444 44.0321 114.441 23.3718 101.076 10.0072C88.7562 -2.31269 69.3061 -3.15662 56.0094 7.47537C42.7126 -3.15754 23.2618 -2.31389 10.9416 10.0063ZM14.953 50.6673C5.51438 40.8169 6.75071 25.5109 16.5984 15.6632C26.7001 5.56149 43.0782 5.56149 53.1799 15.6632L53.1799 15.6632L53.1799 15.6632L53.1799 15.6632L53.1799 15.6633L53.18 15.6633L53.18 15.6633L53.18 15.6633L53.1801 15.6634L53.1801 15.6634L53.1801 15.6635L53.1802 15.6635L53.1802 15.6635L53.1802 15.6636L53.1803 15.6636L53.1803 15.6636L53.1803 15.6636L53.1803 15.6637L53.1804 15.6637L53.1804 15.6637L53.1805 15.6638L53.1805 15.6638L53.1805 15.6639L53.1806 15.6639L53.1806 15.6639L53.1806 15.6639L53.1806 15.664L53.1807 15.664L53.1807 15.664L53.1807 15.6641L53.1808 15.6641L53.1808 15.6641L56.0093 18.4926L58.8377 15.6642L58.8377 15.6641L58.8377 15.6641L58.8378 15.6641L58.8378 15.6641L58.8378 15.6641L58.8378 15.664C68.9395 5.56236 85.3176 5.56236 95.4193 15.664C96.7758 17.0206 97.9414 18.4854 98.9183 20.0316L81.8148 36.4434C79.6101 34.876 76.9142 33.9543 74.0031 33.9543C68.2989 33.9543 63.4212 37.4929 61.4455 42.4947L50.8843 36.085L50.8845 36.0086C50.8845 28.5546 44.8418 22.5119 37.3878 22.5119C29.9338 22.5119 23.8912 28.5546 23.8912 36.0086C23.8912 37.8321 24.2528 39.5712 24.9083 41.1579L14.953 50.6673ZM102.172 27.9965C103.955 36.2331 101.575 45.3266 95.2612 52.4129C94.5432 53.2187 93.8022 53.957 93.0427 54.6307L92.9532 54.7101L92.8686 54.7947L56.009 91.6542L23.8558 59.501L23.7431 59.3883L23.6219 59.285C22.8707 58.6448 21.9459 57.7131 20.6037 56.3328L30.0323 47.3266C32.1482 48.7046 34.6745 49.5052 37.3878 49.5052C41.8962 49.5052 45.8882 47.2947 48.3393 43.8985L61.1876 51.6962C62.9669 57.0703 68.0322 60.9476 74.0031 60.9476C81.457 60.9476 87.4997 54.9049 87.4997 47.4509C87.4997 45.8346 87.2156 44.2847 86.6946 42.8483L102.172 27.9965ZM31.8912 36.0086C31.8912 32.9728 34.3521 30.5119 37.3878 30.5119C40.4235 30.5119 42.8845 32.9728 42.8845 36.0086C42.8845 39.0443 40.4235 41.5052 37.3878 41.5052C34.3521 41.5052 31.8912 39.0443 31.8912 36.0086ZM74.0031 41.9543C70.9673 41.9543 68.5064 44.4152 68.5064 47.4509C68.5064 50.4867 70.9673 52.9476 74.0031 52.9476C77.0388 52.9476 79.4997 50.4867 79.4997 47.4509C79.4997 44.4152 77.0388 41.9543 74.0031 41.9543Z" fill="#131722"/>
</svg>
