<svg width="432" height="162" viewBox="0 0 432 162" fill="none" xmlns="http://www.w3.org/2000/svg">
<path fill-rule="evenodd" clip-rule="evenodd" d="M253.426 7.59423L254.055 7.23124C255.025 5.34166 255.84 3.54226 256.493 1.91812L261.264 0.532227C260.297 3.44692 258.705 7.15605 256.541 11.0715C256.916 21.5189 252.607 32.2186 245.447 40.444C233.778 53.8503 218.455 56.4085 201.874 54.2222C202.222 53.8916 202.58 53.5651 202.938 53.2377C204.296 51.9966 205.669 50.7412 206.659 49.1921C203.128 50.5879 199.379 51.4984 195.623 52.0251C184.967 46.4861 173.98 37.0868 171.355 24.7575C180.535 7.75285 200.298 0.750251 218.739 4.81824C219.976 8.30888 221.901 11.2747 224.601 13.8351C224.477 11.9234 224.491 10.0011 224.504 8.0827V8.08189V8.08077C224.508 7.48506 224.512 6.88971 224.512 6.29516C229.315 9.2624 234.169 12.1509 240.034 12.0052C244.108 11.904 248.426 10.4801 253.426 7.59423ZM230.876 30.879C229.319 29.1138 227.039 28.0004 224.5 28.0004C222.124 28.0004 219.976 28.9755 218.433 30.5473L210.531 23.2915C212.395 17.9275 208.272 12.0004 202.5 12.0004C196.364 12.0004 192.249 18.6315 194.792 24.0876L181.776 36.2771C177.674 31.3124 176.099 26.9875 175.606 25.3442C183.967 11.6201 200.075 5.15593 215.756 8.26783C218.694 15.1646 224.14 18.9946 230.526 22.226C230.418 21.8451 230.308 21.4654 230.199 21.0862L230.198 21.0851C229.458 18.528 228.726 15.9945 228.577 13.3108C235.63 16.7618 243.174 16.6629 250.338 13.6218C245.577 20.8863 239.211 27.8433 230.876 30.879ZM208.322 26.6935L216.353 34.0681C214.772 39.3709 218.885 45.0004 224.5 45.0004C229.954 45.0004 234.047 39.675 232.751 34.4483C240.74 31.3737 247.119 25.0721 252.031 18.2246C248.557 37.6925 230.068 52.8347 210.124 51.1978C211.896 48.362 212.619 45.1401 213.34 41.9233C213.457 41.4019 213.574 40.8805 213.695 40.3609C208.216 44.1335 203.017 46.744 196.323 47.877C191.269 45.1781 187.409 42.1672 184.471 39.234L197.297 27.2221C200.557 29.7494 205.315 29.522 208.322 26.6935ZM202.5 16.0004C200.015 16.0004 198 18.0151 198 20.5004C198 22.9857 200.015 25.0004 202.5 25.0004C204.986 25.0004 207 22.9857 207 20.5004C207 18.0151 204.986 16.0004 202.5 16.0004ZM220 36.5004C220 34.0151 222.015 32.0004 224.5 32.0004C226.986 32.0004 229 34.0151 229 36.5004C229 38.9857 226.986 41.0004 224.5 41.0004C222.015 41.0004 220 38.9857 220 36.5004ZM32.2497 75.712C33.8817 75.712 35.1297 77.056 35.1297 78.64C35.1297 80.272 33.8817 81.568 32.2497 81.568C30.6177 81.568 29.2737 80.272 29.2737 78.64C29.2737 77.056 30.6177 75.712 32.2497 75.712ZM34.2657 112H30.1377V88H34.2657V112ZM25.4397 112H4.51172V77.92H8.97572V107.776H25.4397V112ZM64.4588 110.608V88H60.3308V91.696C58.6988 89.296 55.5308 87.52 51.9788 87.52C45.3068 87.52 40.2188 92.896 40.2188 99.712C40.2188 106.576 45.3068 111.952 51.9788 111.952C55.5308 111.952 58.6988 110.128 60.3308 107.728V110.464C60.3308 116.224 56.3948 118.768 52.3148 118.768C48.6188 118.768 45.8348 117.184 43.9148 114.736L41.0348 117.616C43.0988 120.304 47.1308 122.512 52.3148 122.512C59.1788 122.512 64.4588 118.624 64.4588 110.608ZM44.4428 99.712C44.4428 94.912 47.7548 91.312 52.5548 91.312C57.3548 91.312 60.6668 94.912 60.6668 99.712C60.6668 104.56 57.3548 108.112 52.5548 108.112C47.7548 108.112 44.4428 104.56 44.4428 99.712ZM76.3595 112H72.2315V76H76.3595V91.696C77.9915 88.864 80.8715 87.52 83.9915 87.52C89.3675 87.52 93.0635 91.264 93.0635 97.216V112H88.9835V97.84C88.9835 93.808 86.6795 91.312 83.3195 91.312C79.4315 91.312 76.3595 94.48 76.3595 100.096V112ZM113.224 111.664V107.968C112.456 108.256 111.304 108.448 110.296 108.448C107.704 108.448 106.312 107.44 106.312 104.368V91.792H113.224V88H106.312V81.328H102.184V88H97.0958V91.792H102.184V104.896C102.184 109.888 105.352 112.24 109.528 112.24C111.016 112.24 112.216 112 113.224 111.664ZM142.497 112H138.849L132.945 94.72L126.993 112H123.345L115.185 88H119.505L125.313 105.52L131.313 88H134.481L140.481 105.52L146.289 88H150.657L142.497 112ZM153.141 100C153.141 107.056 158.133 112.48 165.573 112.48C170.565 112.48 174.213 110.272 176.373 106.768L173.109 104.512C171.621 107.056 169.317 108.688 165.621 108.688C160.869 108.688 157.461 105.328 157.317 100.816H176.997C177.045 100.288 177.045 100 177.045 99.5684V99.568C176.997 91.888 171.909 87.52 165.621 87.52C158.325 87.52 153.141 92.992 153.141 100ZM165.477 91.168C169.125 91.168 172.245 93.52 172.821 97.456H157.605C158.373 93.472 161.877 91.168 165.477 91.168ZM185.015 75.712C186.647 75.712 187.895 77.056 187.895 78.64C187.895 80.272 186.647 81.568 185.015 81.568C183.383 81.568 182.039 80.272 182.039 78.64C182.039 77.056 183.383 75.712 185.015 75.712ZM187.031 112H182.903V88H187.031V112ZM217.224 110.608V88H213.096V91.696C211.464 89.296 208.296 87.52 204.744 87.52C198.072 87.52 192.984 92.896 192.984 99.712C192.984 106.576 198.072 111.952 204.744 111.952C208.296 111.952 211.464 110.128 213.096 107.728V110.464C213.096 116.224 209.16 118.768 205.08 118.768C201.384 118.768 198.6 117.184 196.68 114.736L193.8 117.616C195.864 120.304 199.896 122.512 205.08 122.512C211.944 122.512 217.224 118.624 217.224 110.608ZM197.208 99.712C197.208 94.912 200.52 91.312 205.32 91.312C210.12 91.312 213.432 94.912 213.432 99.712C213.432 104.56 210.12 108.112 205.32 108.112C200.52 108.112 197.208 104.56 197.208 99.712ZM229.125 112H224.997V76H229.125V91.696C230.757 88.864 233.637 87.52 236.757 87.52C242.133 87.52 245.829 91.264 245.829 97.216V112H241.749V97.84C241.749 93.808 239.445 91.312 236.085 91.312C232.197 91.312 229.125 94.48 229.125 100.096V112ZM265.989 111.664V107.968C265.221 108.256 264.069 108.448 263.061 108.448C260.469 108.448 259.077 107.44 259.077 104.368V91.792H265.989V88H259.077V81.328H254.949V88H249.861V91.792H254.949V104.896C254.949 109.888 258.117 112.24 262.293 112.24C263.781 112.24 264.981 112 265.989 111.664ZM298.729 112.576C288.937 112.576 281.113 104.848 281.113 94.96C281.113 85.072 288.937 77.344 298.729 77.344C305.209 77.344 310.729 80.56 313.801 85.6L310.057 87.856C307.705 84.064 303.721 81.568 298.729 81.568C291.289 81.568 285.625 87.472 285.625 94.96C285.625 102.448 291.289 108.352 298.729 108.352C303.721 108.352 307.705 105.856 310.057 102.064L313.801 104.32C310.729 109.36 305.209 112.576 298.729 112.576ZM319.075 112H323.203V100.096C323.203 94.48 326.275 91.312 330.163 91.312C333.523 91.312 335.827 93.808 335.827 97.84V112H339.907V97.216C339.907 91.264 336.211 87.52 330.835 87.52C327.715 87.52 324.835 88.864 323.203 91.696V76H319.075V112ZM357.229 112.48C350.509 112.48 345.469 106.864 345.469 100C345.469 93.136 350.509 87.52 357.229 87.52C360.829 87.52 364.093 89.392 365.677 91.696V88H369.805V112H365.677V108.304C364.093 110.608 360.829 112.48 357.229 112.48ZM357.853 108.688C362.701 108.688 366.013 104.848 366.013 100C366.013 95.152 362.701 91.312 357.853 91.312C353.005 91.312 349.645 95.152 349.645 100C349.645 104.848 353.005 108.688 357.853 108.688ZM377.575 112H381.703V100.096C381.703 94.48 385.015 91.84 388.039 91.84C388.855 91.84 389.527 91.936 390.295 92.224V87.952C389.623 87.808 389.047 87.76 388.423 87.76C385.639 87.76 382.663 89.584 381.703 92.656V88H377.575V112ZM408.161 107.968V111.664C407.153 112 405.953 112.24 404.465 112.24C400.289 112.24 397.121 109.888 397.121 104.896V91.792H392.033V88H397.121V81.328H401.249V88H408.161V91.792H401.249V104.368C401.249 107.44 402.641 108.448 405.233 108.448C406.241 108.448 407.393 108.256 408.161 107.968ZM429.035 105.28C429.035 101.632 426.635 99.472 422.507 98.224L419.867 97.408C417.227 96.592 416.459 95.392 416.459 93.952C416.459 92.176 418.427 91.072 420.443 91.072C422.747 91.072 424.379 92.272 425.435 93.808L428.507 91.696C426.923 89.008 424.139 87.52 420.587 87.52C415.979 87.52 412.379 89.968 412.331 94.096C412.331 97.456 414.395 99.952 418.331 101.104L420.731 101.872C423.851 102.832 424.907 103.888 424.907 105.616C424.907 107.68 423.035 108.832 420.731 108.832C418.091 108.832 415.499 107.488 414.635 105.04L411.275 106.912C412.715 110.656 416.411 112.48 420.683 112.48C425.483 112.48 429.035 109.888 429.035 105.28ZM216.71 140.94C216.71 141.52 216.25 142 215.67 142C215.07 142 214.59 141.52 214.59 140.94C214.59 140.36 215.07 139.88 215.67 139.88C216.25 139.88 216.71 140.36 216.71 140.94ZM216.35 155H214.95V145H216.35V155ZM151.32 155.2C154.16 155.2 156.3 152.86 156.3 150C156.3 147.14 154.16 144.8 151.32 144.8C149.78 144.8 148.34 145.6 147.62 146.68V140H146.22V155H147.62V153.32C148.34 154.4 149.78 155.2 151.32 155.2ZM151.18 153.9C149 153.9 147.5 152.16 147.5 150C147.5 147.84 149 146.1 151.18 146.1C153.36 146.1 154.86 147.84 154.86 150C154.86 152.16 153.36 153.9 151.18 153.9ZM161.039 159.18L167.679 145H166.099L162.439 152.94L158.779 145H157.219L161.659 154.5L159.459 159.18H161.039ZM178.01 155H176.51V142.24H171.91V140.8H182.61V142.24H178.01V155ZM182.782 155H184.182V149.98C184.182 147.42 185.722 146.3 186.962 146.3C187.262 146.3 187.522 146.34 187.802 146.44V144.98C187.562 144.92 187.322 144.9 187.082 144.9C185.902 144.9 184.602 145.66 184.182 147.06V145H182.782V155ZM197.439 153.32C196.719 154.4 195.279 155.2 193.739 155.2C190.899 155.2 188.759 152.86 188.759 150C188.759 147.14 190.899 144.8 193.739 144.8C195.279 144.8 196.719 145.6 197.439 146.68V145H198.839V155H197.439V153.32ZM190.199 150C190.199 152.16 191.699 153.9 193.879 153.9C196.059 153.9 197.559 152.16 197.559 150C197.559 147.84 196.059 146.1 193.879 146.1C191.699 146.1 190.199 147.84 190.199 150ZM206.414 155.2C207.954 155.2 209.394 154.4 210.114 153.32V155H211.514V140H210.114V146.68C209.394 145.6 207.954 144.8 206.414 144.8C203.574 144.8 201.434 147.14 201.434 150C201.434 152.86 203.574 155.2 206.414 155.2ZM206.554 153.9C204.374 153.9 202.874 152.16 202.874 150C202.874 147.84 204.374 146.1 206.554 146.1C208.734 146.1 210.234 147.84 210.234 150C210.234 152.16 208.734 153.9 206.554 153.9ZM219.794 155H221.194V150.02C221.194 147.54 222.554 146.1 224.314 146.1C225.794 146.1 226.834 147.18 226.834 148.94V155H228.234V148.74C228.234 146.3 226.654 144.8 224.474 144.8C223.174 144.8 221.914 145.36 221.194 146.68V145H219.794V155ZM240.693 154.48C240.693 157.74 238.533 159.38 235.753 159.38C233.453 159.38 231.793 158.34 231.033 157.2L232.133 156.26C232.913 157.34 234.073 158.08 235.753 158.08C237.473 158.08 239.293 157.04 239.293 154.4V153.12C238.573 154.2 237.173 155 235.633 155C232.793 155 230.693 152.76 230.693 149.9C230.693 147.04 232.793 144.8 235.633 144.8C237.173 144.8 238.573 145.6 239.293 146.68V145H240.693V154.48ZM232.133 149.9C232.133 152.06 233.593 153.7 235.773 153.7C237.953 153.7 239.413 152.06 239.413 149.9C239.413 147.74 237.953 146.1 235.773 146.1C233.593 146.1 232.133 147.74 232.133 149.9ZM249.071 155L255.171 140.8H253.491L248.451 152.52L243.411 140.8H241.711L247.831 155H249.071ZM258.878 140.94C258.878 141.52 258.418 142 257.838 142C257.238 142 256.758 141.52 256.758 140.94C256.758 140.36 257.238 139.88 257.838 139.88C258.418 139.88 258.878 140.36 258.878 140.94ZM258.518 155H257.118V145H258.518V155ZM266.282 155.2C268.362 155.2 269.842 154.26 270.722 152.76L269.582 152.02C268.902 153.2 267.922 153.9 266.282 153.9C264.102 153.9 262.602 152.3 262.582 150.24H271.022V149.86C271.002 146.66 268.922 144.8 266.322 144.8C263.282 144.8 261.142 147.1 261.142 150C261.142 152.88 263.142 155.2 266.282 155.2ZM266.262 146.1C267.942 146.1 269.322 147.2 269.562 149H262.702C263.042 147.18 264.602 146.1 266.262 146.1ZM283.203 155H282.043L279.403 147.38L276.743 155H275.583L272.163 145H273.603L276.203 152.6L278.843 145H279.923L282.563 152.6L285.163 145H286.623L283.203 155Z" fill="black"/>
</svg>
