<svg viewBox="0 0 41 26" fill="none" xmlns="http://www.w3.org/2000/svg">
<path d="M23.4976 15.0796L15.3057 9.66292" stroke="white" stroke-width="1.5"/>
<path d="M13.5485 10.6765L5.13477 17.5368" stroke="white" stroke-width="1.5"/>
<circle cx="15.3057" cy="9.87143" r="2.5" fill="white"/>
<circle cx="24.4248" cy="15.4999" r="2.5" fill="white"/>
<path fill-rule="evenodd" clip-rule="evenodd" d="M39.0625 1.18082C37.3814 5.02684 33.5498 10.4602 25.7148 14.8452L26.4474 16.1541C35.3429 11.1756 39.3585 4.83494 40.8921 0.649414L39.0625 1.18082Z" fill="white"/>
<path d="M20.024 24.3591C30.5565 24.3591 38.8825 13.9299 38.0177 4.55039C33.3562 7.24046 29.6462 7.39479 25.4473 4.80047C25.4473 5.98148 25.4473 7.28989 25.827 8.62738C24.5777 7.99523 21.0398 6.60317 19.5142 2.88528C7.43562 1.27871 1.55664 11.6345 1.55664 11.6345C1.55664 11.6345 2.35833 18.0066 11.122 22.5621C11.122 22.5621 14.7179 21.9522 18.6667 20.0884C18.6667 22.2358 16.9512 24.2321 16.9512 24.2321C18.1171 24.3591 18.9993 24.3591 20.024 24.3591Z" stroke="white" stroke-width="1.5"/>
</svg>
