<svg class="logo-svg" width="92" height="56" viewBox="0 0 92 56" fill="none" xmlns="http://www.w3.org/2000/svg">
<path d="M49.1672 33.937L38.2236 23.8881" stroke="white" stroke-width="4"/>
<path d="M27.9308 23.8881L12.1816 38.6374" stroke="white" stroke-width="4"/>
<circle cx="32.5" cy="20.5004" r="6.5" stroke="white" stroke-width="4"/>
<circle cx="54.5" cy="36.5004" r="6.5" stroke="white" stroke-width="4"/>
<path class="logo-svg-stem-path" fill-rule="evenodd" clip-rule="evenodd" d="M86.493 1.91812C84.8392 6.03329 82.1457 11.2735 78.5191 16.2552C73.4701 23.1907 66.8202 29.3408 58.9463 31.4941L60.0015 35.3524C69.1374 32.8539 76.4658 25.872 81.7529 18.6094C86.4387 12.1729 89.6842 5.29286 91.2646 0.532227L86.493 1.91812Z" />
<path d="M44.4691 53.3141C67.8577 53.3141 86.3465 30.1549 84.4261 9.3265C74.0747 15.3001 65.8363 15.6428 56.512 9.88183C56.512 12.5044 56.512 15.4099 57.3553 18.3799C54.5811 16.9762 49.2286 12.1885 47.2242 6.53225C16.8313 -0.172399 3.45996 25.0576 3.45996 25.0576C3.45996 25.0576 6.51875 39.8404 25.9795 49.9563C25.9795 49.9563 35.1367 48.6822 40.5719 44.9398C39.809 48.2054 38.1662 51.0133 36.2942 52.7877C38.7077 53.106 41.736 53.4334 44.4691 53.3141Z" stroke="white" stroke-width="4"/>
</svg>
