<svg xmlns="http://www.w3.org/2000/svg" viewBox="0 0 41 26" fill="none"><path d="M23.5 15.08l-8.2-5.42M13.55 10.68l-8.41 6.86" stroke="#fff" stroke-width="1.5"/><circle cx="15.31" cy="9.87" r="2.5" fill="#fff"/><circle cx="24.43" cy="15.5" r="2.5" fill="#fff"/><path d="M39.06 1.18c-1.68 3.85-5.5 9.28-13.34 13.67l.73 1.3c8.9-4.97 12.9-11.32 14.44-15.5l-1.83.53z" fill="#fff"/><path d="M20.02 24.36c10.54 0 18.86-10.43 18-19.81-4.66 2.69-8.37 2.84-12.57.25 0 1.18 0 2.49.38 3.83C24.58 8 21.04 6.6 19.5 2.89 7.44 1.28 1.56 11.63 1.56 11.63s.8 6.38 9.56 10.93c0 0 3.6-.6 7.55-2.47 0 2.15-1.72 4.14-1.72 4.14 1.17.13 2.05.13 3.07.13z" stroke="#fff" stroke-width="1.5"/></svg>