<svg xmlns="http://www.w3.org/2000/svg" width="254" height="34" viewBox="0 0 254 34"><path fill-rule="evenodd" d="M31.54 10.9c1.87-.04 3.83-.69 6.09-2 .6-.96 1.07-1.88 1.43-2.72l1.83-.53a22.86 22.86 0 0 1-2.1 4.22c.32 4.81-1.62 9.8-4.93 13.6-3.4 3.9-8.31 6.64-13.84 6.64-1.52 0-3.05-.12-4.57-.29.92-1.06 1.83-2.13 2.26-3.49-2.15.9-4.41 1.62-6.71 2.01C6.4 25.96 1.47 21.97.78 16.48 4.6 9.76 12.46 6.2 20.04 7.2a9.9 9.9 0 0 0 4.76 5.08c-.15-1.27-.1-2.55-.1-3.82 2.11 1.3 4.27 2.51 6.84 2.45Zm4.3.56a33.3 33.3 0 0 1-9.21 7.86 2.5 2.5 0 0 0-3.9-.65l-4.98-3.29a2.53 2.53 0 0 0-2.44-3 2.53 2.53 0 0 0-2.47 2.9l-7.92 6.47a12.31 12.31 0 0 1-2.57-4.97C5.88 11.2 12.39 7.85 19 8.58c1.6 3.42 4.86 4.9 8.02 6.49-.38-1.32-.75-2.6-.8-3.98a11 11 0 0 0 5.36 1.32c1.4-.04 2.8-.36 4.26-.95Zm-8.95 9.44a34.82 34.82 0 0 0 10.4-8.85 18.38 18.38 0 0 1-4.56 10.43 17.68 17.68 0 0 1-14.41 6.1c.9-1.5 1.1-2.98 1.1-4.67a35.5 35.5 0 0 1-8.18 2.87 21.29 21.29 0 0 1-5.32-3.91l7.63-6.22a2.5 2.5 0 0 0 3.47.04l4.96 3.29A2.53 2.53 0 0 0 24.43 23a2.5 2.5 0 0 0 2.46-2.1Z"/><path d="M49.26 26h10.46v-2.11h-8.23V8.96h-2.23V26ZM64.08 9.32c0-.8-.62-1.46-1.44-1.46a1.5 1.5 0 0 0-1.48 1.46c0 .82.67 1.46 1.48 1.46.82 0 1.44-.64 1.44-1.46ZM61.58 26h2.07V14H61.6v12ZM78.27 25.3V14H76.2v1.85a5.1 5.1 0 0 0-4.18-2.09 5.9 5.9 0 0 0-5.88 6.1c0 3.43 2.54 6.12 5.88 6.12 1.78 0 3.36-.92 4.18-2.12v1.37c0 2.88-1.97 4.15-4.01 4.15-1.85 0-3.24-.79-4.2-2.01l-1.44 1.44c1.03 1.34 3.05 2.45 5.64 2.45 3.43 0 6.07-1.95 6.07-5.96Zm-10-5.44c0-2.4 1.65-4.2 4.05-4.2s4.05 1.8 4.05 4.2c0 2.42-1.65 4.2-4.05 4.2s-4.06-1.78-4.06-4.2ZM81.68 26h2.06v-5.95c0-2.81 1.54-4.4 3.48-4.4 1.68 0 2.83 1.25 2.83 3.27V26h2.04v-7.4c0-2.97-1.85-4.84-4.53-4.84-1.56 0-3 .67-3.82 2.09V8h-2.06v18ZM101.7 25.83v-1.85c-.4.15-.97.24-1.47.24-1.3 0-2-.5-2-2.04V15.9h3.46V14h-3.45v-3.34h-2.07V14h-2.54v1.9h2.54v6.55c0 2.5 1.59 3.67 3.67 3.67.75 0 1.35-.12 1.85-.29ZM114.03 26h1.82l4.08-12h-2.19l-2.9 8.76-3-8.76h-1.58l-3 8.76-2.9-8.76h-2.17l4.08 12h1.83l2.97-8.64 2.96 8.64ZM120.69 20a6 6 0 0 0 6.22 6.24c2.5 0 4.32-1.1 5.4-2.86l-1.64-1.12a4.01 4.01 0 0 1-3.74 2.08 3.99 3.99 0 0 1-4.15-3.93h9.84c.02-.27.02-.41.02-.63-.02-3.84-2.57-6.02-5.71-6.02a6.08 6.08 0 0 0-6.24 6.24Zm6.17-4.42a3.59 3.59 0 0 1 3.67 3.15h-7.6c.38-2 2.13-3.15 3.93-3.15ZM137.59 9.32c0-.8-.63-1.46-1.44-1.46a1.5 1.5 0 0 0-1.49 1.46c0 .82.67 1.46 1.49 1.46.81 0 1.44-.64 1.44-1.46ZM135.09 26h2.07V14h-2.07v12ZM151.77 25.3V14h-2.06v1.85a5.1 5.1 0 0 0-4.18-2.09 5.9 5.9 0 0 0-5.88 6.1c0 3.43 2.55 6.12 5.88 6.12 1.78 0 3.36-.92 4.18-2.12v1.37c0 2.88-1.97 4.15-4.01 4.15-1.85 0-3.24-.79-4.2-2.01l-1.44 1.44c1.03 1.34 3.05 2.45 5.64 2.45 3.43 0 6.07-1.95 6.07-5.96Zm-10-5.44c0-2.4 1.65-4.2 4.05-4.2s4.06 1.8 4.06 4.2c0 2.42-1.66 4.2-4.06 4.2-2.4 0-4.06-1.78-4.06-4.2ZM155.18 26h2.06v-5.95c0-2.81 1.54-4.4 3.48-4.4 1.68 0 2.84 1.25 2.84 3.27V26h2.03v-7.4c0-2.97-1.84-4.84-4.53-4.84-1.56 0-3 .67-3.82 2.09V8h-2.06v18ZM175.2 25.83v-1.85c-.39.15-.96.24-1.47.24-1.3 0-2-.5-2-2.04V15.9h3.47V14h-3.46v-3.34h-2.06V14h-2.55v1.9h2.55v6.55c0 2.5 1.58 3.67 3.67 3.67.74 0 1.34-.12 1.84-.29ZM181.8 17.48c0 4.94 3.9 8.8 8.8 8.8 3.24 0 6-1.6 7.54-4.12l-1.87-1.13a6.51 6.51 0 0 1-5.67 3.15 6.53 6.53 0 0 1-6.55-6.7c0-3.74 2.83-6.7 6.55-6.7 2.5 0 4.5 1.25 5.67 3.15l1.87-1.13a8.69 8.69 0 0 0-7.54-4.13c-4.9 0-8.8 3.87-8.8 8.81ZM200.3 26h2.06v-5.95c0-2.81 1.54-4.4 3.48-4.4 1.68 0 2.83 1.25 2.83 3.27V26h2.04v-7.4c0-2.97-1.84-4.84-4.53-4.84-1.56 0-3 .67-3.82 2.09V8h-2.06v18ZM213.01 20c0 3.43 2.52 6.24 5.88 6.24 1.8 0 3.44-.94 4.23-2.09V26h2.06V14h-2.06v1.85a5.26 5.26 0 0 0-4.23-2.09c-3.36 0-5.88 2.8-5.88 6.24Zm10.28 0c0 2.42-1.66 4.34-4.08 4.34-2.43 0-4.1-1.92-4.1-4.34s1.67-4.34 4.1-4.34c2.42 0 4.08 1.92 4.08 4.34ZM228.59 26h2.06v-5.95c0-2.81 1.66-4.13 3.17-4.13.4 0 .74.05 1.13.2v-2.14a3.57 3.57 0 0 0-4.3 2.35V14h-2.06v12ZM243.4 25.83v-1.85c-.38.15-.96.24-1.46.24-1.3 0-2-.5-2-2.04V15.9h3.46V14h-3.46v-3.34h-2.06V14h-2.54v1.9h2.54v6.55c0 2.5 1.59 3.67 3.67 3.67.75 0 1.35-.12 1.85-.29ZM253.36 22.64c0-1.82-1.2-2.9-3.27-3.53l-1.32-.4c-1.32-.41-1.7-1.01-1.7-1.73 0-.9.98-1.44 2-1.44 1.14 0 1.96.6 2.49 1.36l1.53-1.05c-.79-1.35-2.18-2.09-3.96-2.09-2.3 0-4.1 1.22-4.13 3.29 0 1.68 1.04 2.93 3 3.5l1.2.39c1.56.48 2.1 1 2.1 1.87 0 1.03-.94 1.6-2.1 1.6-1.31 0-2.61-.67-3.04-1.89l-1.68.94c.72 1.87 2.56 2.78 4.7 2.78 2.4 0 4.18-1.3 4.18-3.6Z"/></svg>