<svg width="115" height="104" viewBox="0 0 115 104" fill="none" xmlns="http://www.w3.org/2000/svg">
<path fill-rule="evenodd" clip-rule="evenodd" d="M0.542969 61.0831C0.542969 27.8888 27.4523 0.979492 60.6466 0.979492C83.0612 0.979492 102.605 13.2511 112.933 31.4232L114.583 34.3262L112.022 36.4683L94.1488 51.4152L90.7484 54.2589L88.2677 50.5853C81.0752 39.9342 68.9035 32.9447 55.1008 32.9447C33.0152 32.9447 15.1113 50.8486 15.1113 72.9341C15.1113 82.6448 18.5674 91.5376 24.3208 98.4654L18.4342 103.868C7.39344 92.9744 0.542969 77.8251 0.542969 61.0831ZM60.6466 8.97949C31.8706 8.97949 8.54297 32.3071 8.54297 61.0831L8.54324 61.2519C13.7602 40.394 32.6263 24.9447 55.1008 24.9447C70.0858 24.9447 83.4649 31.8157 92.2606 42.5655L104.246 32.5425C94.932 18.3443 78.8807 8.97949 60.6466 8.97949ZM70.3306 67.5709L56.8895 78.9372L51.7238 72.8285L65.165 61.4623L70.3306 67.5709ZM77.9792 62C80.7407 62 82.9792 59.7614 82.9792 57C82.9792 54.2386 80.7407 52 77.9792 52C75.2178 52 72.9792 54.2386 72.9792 57C72.9792 59.7614 75.2178 62 77.9792 62Z" fill="#131722"/>
</svg>
