<svg xmlns="http://www.w3.org/2000/svg" width="44" height="44" viewBox="0 0 44 44" fill="none"><path d="M10.93 41.1A16.65 16.65 0 0 1 22 36.91c4.24 0 8.12 1.58 11.07 4.2" stroke="#2962FF" stroke-width="2"/><circle cx="22" cy="17.66" r="6" stroke="#2962FF" stroke-width="2"/><path d="m11.78 6.04 4.76-2.74 4 2.8 2.73-.05 4.12-2.98 4.65 2.56-.62 4.72 1.18 2.4 4.67 1.94-.12 5.3-4.74 2.13-1.29 2.46.42 4.7-4.76 2.74-4-2.8-2.73.05-4.11 2.98-4.65-2.56.61-4.72-1.18-2.4-4.67-1.94.12-5.3 3.97-1.79 2.06-2.8-.42-4.7z" stroke="#2962FF" stroke-width="2"/></svg>