<svg width="560" height="560" viewBox="0 0 560 560" fill="none" xmlns="http://www.w3.org/2000/svg">
<path d="M188.958 442.44C188.958 444.645 186.422 446.41 183.224 446.41C179.584 446.741 177.048 444.976 177.048 442.44C177.048 440.234 179.584 438.469 182.783 438.469C186.091 438.139 188.958 439.903 188.958 442.44ZM154.661 437.477C153.889 439.683 156.094 442.219 159.403 442.881C162.27 443.984 165.579 442.881 166.24 440.675C166.902 438.469 164.807 435.933 161.498 434.94C158.631 434.168 155.433 435.271 154.661 437.477ZM203.405 435.602C200.207 436.374 198.002 438.469 198.332 441.006C198.663 443.212 201.531 444.645 204.839 443.873C208.037 443.101 210.243 441.006 209.912 438.8C209.581 436.705 206.604 435.271 203.405 435.602ZM275.971 13C123.01 13 6 129.127 6 282.089C6 404.392 82.9771 509.05 192.929 545.884C207.045 548.421 212.007 539.709 212.007 532.54C212.007 525.703 211.677 487.986 211.677 464.827C211.677 464.827 134.479 481.369 118.267 431.963C118.267 431.963 105.695 399.871 87.609 391.599C87.609 391.599 62.3543 374.285 89.3735 374.616C89.3735 374.616 116.834 376.822 131.942 403.069C156.094 445.638 196.568 433.396 212.338 426.118C214.875 408.473 222.043 396.231 229.984 388.953C168.336 382.115 106.136 373.182 106.136 267.091C106.136 236.763 114.518 221.544 132.163 202.134C129.296 194.966 119.922 165.41 135.03 127.253C158.079 120.084 211.125 157.029 211.125 157.029C233.182 150.853 256.892 147.655 280.383 147.655C303.873 147.655 327.583 150.853 349.64 157.029C349.64 157.029 402.686 119.974 425.735 127.253C440.843 165.521 431.469 194.966 428.602 202.134C446.247 221.654 457.055 236.873 457.055 267.091C457.055 373.513 392.099 382.005 330.451 388.953C340.597 397.665 349.199 414.207 349.199 440.124C349.199 477.289 348.868 523.277 348.868 532.32C348.868 539.488 353.941 548.2 367.947 545.664C478.229 509.05 553.001 404.392 553.001 282.089C553.001 129.127 428.933 13 275.971 13ZM113.194 393.364C111.761 394.467 112.092 397.003 113.966 399.099C115.731 400.863 118.267 401.635 119.701 400.201C121.135 399.099 120.804 396.562 118.929 394.467C117.165 392.702 114.628 391.93 113.194 393.364ZM101.284 384.431C100.512 385.865 101.615 387.629 103.82 388.732C105.585 389.835 107.791 389.504 108.563 387.96C109.335 386.526 108.232 384.762 106.026 383.659C103.82 382.997 102.056 383.328 101.284 384.431ZM137.015 423.692C135.251 425.125 135.913 428.434 138.449 430.529C140.986 433.066 144.184 433.396 145.617 431.632C147.051 430.198 146.389 426.89 144.184 424.794C141.758 422.258 138.449 421.927 137.015 423.692ZM124.443 407.48C122.679 408.583 122.679 411.45 124.443 413.987C126.208 416.523 129.185 417.626 130.619 416.523C132.384 415.09 132.384 412.222 130.619 409.686C129.075 407.149 126.208 406.046 124.443 407.48Z" fill="#2962FF"/>
</svg>
