<svg xmlns="http://www.w3.org/2000/svg" width="91" height="56" viewBox="0 0 91 56" fill="none"><path d="M48.17 33.94 37.22 23.89m-10.29 0L11.18 38.64" stroke="currentColor" stroke-width="4"/><circle cx="31.5" cy="20.5" r="6.5" stroke="currentColor" stroke-width="4"/><circle cx="53.5" cy="36.5" r="6.5" stroke="currentColor" stroke-width="4"/><path d="M85.5 1.92a68.68 68.68 0 0 1-7.98 14.34c-5.05 6.93-11.7 13.08-19.57 15.23L59 35.35c9.14-2.5 16.47-9.48 21.75-16.74A70.24 70.24 0 0 0 90.26.53L85.5 1.92z" fill="currentColor"/><path d="M43.47 53.31c23.39 0 41.88-23.16 39.96-43.98-10.36 5.97-18.6 6.31-27.92.55 0 2.62 0 5.53.85 8.5-2.78-1.4-8.13-6.2-10.14-11.85C15.83-.17 2.46 25.06 2.46 25.06s3.06 14.78 22.52 24.9c0 0 9.16-1.28 14.6-5.02a16.03 16.03 0 0 1-4.29 7.85c2.42.32 5.45.64 8.18.52z" stroke="currentColor" stroke-width="4"/></svg>