<svg xmlns="http://www.w3.org/2000/svg" width="269" height="29" viewBox="0 0 269 29" fill="none"><path d="M23.5 15.08l-8.2-5.42M13.55 10.68l-8.41 6.86" stroke="currentColor" stroke-width="1.5"/><circle cx="15.31" cy="9.87" r="2.5" fill="currentColor"/><circle cx="24.43" cy="15.5" r="2.5" fill="currentColor"/><path d="M39.06 1.18c-1.68 3.85-5.5 9.28-13.34 13.67l.73 1.3c8.9-4.97 12.9-11.32 14.44-15.5l-1.83.53z" fill="currentColor"/><path d="M20.02 24.36c10.54 0 18.86-10.43 18-19.81-4.66 2.69-8.37 2.84-12.57.25 0 1.18 0 2.49.38 3.83C24.58 8 21.04 6.6 19.5 2.89 7.44 1.28 1.56 11.63 1.56 11.63s.8 6.38 9.56 10.93c0 0 3.6-.6 7.55-2.47 0 2.15-1.72 4.14-1.72 4.14 1.17.13 2.05.13 3.07.13z" stroke="currentColor" stroke-width="1.5"/><path d="M48.98 23H60.2v-3.45h-7.6V5.25h-3.63V23zM65.72 6.27a2.2 2.2 0 0 0-4.38 0 2.2 2.2 0 0 0 4.38 0zM61.82 23h3.43V10.5h-3.43V23zm18.37-.98V10.5h-3.43v1.4a4.42 4.42 0 0 0-3.62-1.68c-3.25 0-5.9 2.8-5.9 6.33 0 3.5 2.65 6.3 5.9 6.3 1.6 0 2.97-.73 3.62-1.65v.85c0 2-1.32 3.43-3.35 3.43-1.37 0-2.8-.5-3.9-1.55l-1.87 2.55c1.42 1.34 3.67 2 5.82 2 3.83 0 6.73-1.93 6.73-6.46zm-9.5-5.47a3.1 3.1 0 0 1 3.17-3.2 3.1 3.1 0 0 1 3.18 3.2c0 1.9-1.45 3.2-3.18 3.2a3.12 3.12 0 0 1-3.17-3.2zM82.97 23h3.42v-6.1c0-2.4 1.2-3.55 2.78-3.55 1.42 0 2.2 1.1 2.2 2.9V23h3.42v-7.32c0-3.25-1.8-5.46-4.82-5.46-1.63 0-2.93.7-3.58 1.7V4.26h-3.42V23zm22.54-.13v-3.02c-.4.15-.85.22-1.4.22-1.47 0-2.13-.6-2.13-2.12V13.5h3.53v-3h-3.53V7.03h-3.42v3.47h-2.53v3h2.53v5.13c0 3.05 2.13 4.52 4.77 4.52.95 0 1.63-.1 2.18-.27zm12.64.13h3.4l4.13-12.5H122l-2.35 8-2.55-8h-2.62l-2.53 8-2.37-8h-3.65l4.15 12.5h3.4l2.32-7.13 2.35 7.13zm7.83-6.25c0 3.95 2.9 6.52 6.62 6.52 2.63 0 4.65-1.12 5.8-2.8l-2.55-1.9a3.76 3.76 0 0 1-3.22 1.58c-1.65 0-3.13-.92-3.33-2.6h9.35c.05-.53.05-.88.05-1.18 0-4.05-2.87-6.15-6.15-6.15a6.39 6.39 0 0 0-6.57 6.53zm6.47-3.7c1.28 0 2.53.7 2.83 2.17h-5.85c.32-1.52 1.75-2.17 3.02-2.17zm12.18-6.78a2.2 2.2 0 0 0-4.38 0 2.2 2.2 0 0 0 4.38 0zM140.73 23h3.43V10.5h-3.43V23zm18.37-.98V10.5h-3.43v1.4a4.42 4.42 0 0 0-3.63-1.68c-3.25 0-5.9 2.8-5.9 6.33 0 3.5 2.66 6.3 5.9 6.3 1.6 0 2.98-.73 3.63-1.65v.85c0 2-1.32 3.43-3.35 3.43-1.38 0-2.8-.5-3.9-1.55l-1.88 2.55c1.43 1.34 3.68 2 5.83 2 3.82 0 6.72-1.93 6.72-6.46zm-9.5-5.47a3.1 3.1 0 0 1 3.17-3.2 3.1 3.1 0 0 1 3.17 3.2c0 1.9-1.44 3.2-3.17 3.2a3.12 3.12 0 0 1-3.18-3.2zM161.88 23h3.42v-6.1c0-2.4 1.2-3.55 2.77-3.55 1.43 0 2.2 1.1 2.2 2.9V23h3.43v-7.32c0-3.25-1.8-5.46-4.82-5.46-1.63 0-2.93.7-3.58 1.7V4.26h-3.43V23zm22.54-.13v-3.02c-.4.15-.85.22-1.4.22-1.48 0-2.13-.6-2.13-2.12V13.5h3.53v-3h-3.53V7.03h-3.42v3.47h-2.53v3h2.53v5.13c0 3.05 2.12 4.52 4.77 4.52.95 0 1.63-.1 2.18-.27zm6.4-8.75c0 5.08 4.1 9.18 9.18 9.18a9.14 9.14 0 0 0 8.2-4.73l-3.15-1.75A5.6 5.6 0 0 1 200 19.8a5.6 5.6 0 0 1-5.52-5.68A5.6 5.6 0 0 1 200 8.46c2.3 0 4 1.15 5.05 2.98l3.15-1.75a9.14 9.14 0 0 0-8.2-4.73 9.17 9.17 0 0 0-9.17 9.18zM209.89 23h3.42v-6.1c0-2.4 1.2-3.55 2.77-3.55 1.43 0 2.2 1.1 2.2 2.9V23h3.43v-7.32c0-3.25-1.8-5.46-4.82-5.46-1.63 0-2.93.7-3.58 1.7V4.26h-3.43V23zm13.66-6.25c0 3.55 2.55 6.52 5.88 6.52 1.72 0 3.05-.87 3.6-1.67V23h3.42V10.5h-3.43v1.4a4.46 4.46 0 0 0-3.6-1.68c-3.32 0-5.87 2.98-5.87 6.53zm9.75 0c0 1.95-1.28 3.4-3.15 3.4-1.88 0-3.15-1.45-3.15-3.4s1.27-3.4 3.15-3.4 3.15 1.45 3.15 3.4zm5.98 6.25h3.42v-5.98c0-2.04 1.08-3.32 2.7-3.32.56 0 1.03.1 1.56.28V10.5c-.43-.13-.8-.15-1.16-.15-1.4 0-2.67.93-3.1 2.15v-2h-3.42V23zm17.59-.13v-3.02c-.4.15-.85.22-1.4.22-1.48 0-2.13-.6-2.13-2.12V13.5h3.53v-3h-3.53V7.03h-3.42v3.47h-2.53v3h2.53v5.13c0 3.05 2.12 4.52 4.77 4.52.95 0 1.63-.1 2.18-.27zm10.9-3.67c0-2.18-1.38-3.27-3.63-3.88l-1.18-.35c-1.05-.27-1.22-.7-1.22-1.07 0-.58.65-.85 1.25-.85.82 0 1.55.38 2.12 1.1l2.25-1.83a4.97 4.97 0 0 0-4.32-2.1c-2.65 0-4.65 1.48-4.7 3.78-.05 1.93 1.15 3.4 3.45 4l.92.23c1.38.37 1.68.67 1.68 1.2 0 .62-.68.9-1.38.9-1.2 0-2.25-.53-2.8-1.45l-2.35 2c1.08 1.62 2.95 2.4 5.15 2.4 2.68 0 4.75-1.66 4.75-4.08z" fill="currentColor"/></svg>