<svg xmlns="http://www.w3.org/2000/svg" width="120" height="120" viewBox="0 0 120 120"><path fill-rule="evenodd" d="M14.94 19C2.9 31.06.4 50.6 12.08 64.02l-.02.02C28.06 80 44.03 96 60.01 111.98l42.43-42.44c.97-.86 1.9-1.8 2.8-2.8 12.2-13.7 13.2-34.36-.16-47.72A33.87 33.87 0 0 0 60 16.48 33.87 33.87 0 0 0 14.94 19zm4.01 40.67c-9.44-9.85-8.2-25.16 1.65-35 9.95-9.96 26.63-10 36.58 0l2.83 2.82c12.26-12.26 32.9-14.3 42.9 1.54l-17.1 16.41a13.5 13.5 0 0 0-20.37 6.05l-10.56-6.4V45a13.5 13.5 0 0 0-13.5-13.5c-9.48 0-16.03 10.04-12.47 18.65l-9.96 9.5zM106.17 37c1.78 8.23-.6 17.33-6.9 24.41C87.01 75.15 73.01 87.64 60 100.65L27.86 68.5l-.12-.11-.12-.1a49.89 49.89 0 0 1-3.02-2.96l9.43-9a13.48 13.48 0 0 0 18.3-3.43l12.86 7.8A13.5 13.5 0 0 0 78 69.95c9.24 0 15.8-9.56 12.7-18.1L106.16 37zM35.9 45a5.5 5.5 0 1 1 11 0 5.5 5.5 0 0 1-11 0zM78 50.96a5.5 5.5 0 1 0 0 11 5.5 5.5 0 0 0 0-11z" fill="currentColor"/></svg>