<svg xmlns="http://www.w3.org/2000/svg" width="111" height="103" viewBox="0 0 111 103"><path fill-rule="evenodd" d="M10.94 10C-1.1 22.06-3.6 41.6 8.08 55.02l-.02.02.3.3c.82.91 1.7 1.8 2.66 2.65l.03.03a383.7 383.7 0 0 1 3.2 3.27l.13.13a68.69 68.69 0 0 0 3.93 3.85l34.87 34.88 2.83 2.83 2.83-2.83 39.6-39.6c.97-.87 1.9-1.8 2.8-2.8 12.2-13.7 13.2-34.37-.16-47.73A33.87 33.87 0 0 0 56 7.48 33.87 33.87 0 0 0 10.94 10zm4.01 40.67c-9.44-9.85-8.2-25.16 1.65-35a25.87 25.87 0 0 1 36.58 0l2.83 2.82 2.83-2.83a25.87 25.87 0 0 1 40.08 4.37l-17.1 16.41a13.5 13.5 0 0 0-20.37 6.05l-10.57-6.4V36a13.5 13.5 0 1 0-25.97 5.15l-9.96 9.5zM102.17 28c1.78 8.23-.6 17.33-6.9 24.41-.73.8-1.47 1.55-2.23 2.22l-.09.08-.08.08L56 91.65 23.86 59.5l-.12-.11-.12-.1a49.89 49.89 0 0 1-3.02-2.96l9.43-9a13.48 13.48 0 0 0 18.3-3.43l12.86 7.8a13.5 13.5 0 1 0 25.5-8.85L102.17 28zM31.9 36a5.5 5.5 0 1 1 11 0 5.5 5.5 0 0 1-11 0zM74 41.96a5.5 5.5 0 1 0 0 11 5.5 5.5 0 0 0 0-11z" fill="currentColor"/></svg>