<svg width="189" height="32" viewBox="0 0 189 32" fill="none" xmlns="http://www.w3.org/2000/svg">
<path d="M47.5973 25.0238H51.2995V10.5193H56.1428V7.01996H42.8047V10.5193H47.5973V25.0238Z" fill="#000000"/>
<path d="M56.1481 25.0238H59.6221V18.9634C59.6221 16.8587 60.7125 15.5908 62.3607 15.5908C62.9439 15.5908 63.4004 15.6923 63.9329 15.8698V12.3451C63.5018 12.2183 63.1468 12.1929 62.7664 12.1929C61.3464 12.1929 60.0532 13.1311 59.6221 14.3737V12.3451H56.1481V25.0238Z" fill="#000000"/>
<path d="M70.6007 25.3028C72.3504 25.3028 73.669 24.4153 74.2522 23.6038V25.0238H77.7262V12.3451H74.2522V13.7651C73.669 12.9536 72.3504 12.0661 70.6007 12.0661C67.2282 12.0661 64.6417 15.109 64.6417 18.6844C64.6417 22.2599 67.2282 25.3028 70.6007 25.3028ZM71.3361 22.1331C69.4089 22.1331 68.1411 20.6877 68.1411 18.6844C68.1411 16.6812 69.4089 15.2358 71.3361 15.2358C73.2633 15.2358 74.5312 16.6812 74.5312 18.6844C74.5312 20.6877 73.2633 22.1331 71.3361 22.1331Z" fill="#000000"/>
<path d="M85.9975 25.3028C87.7472 25.3028 89.0658 24.4153 89.649 23.6038V25.0238H93.123V6.00566H89.649V13.7651C89.0658 12.9536 87.7472 12.0661 85.9975 12.0661C82.625 12.0661 80.0385 15.109 80.0385 18.6844C80.0385 22.2599 82.625 25.3028 85.9975 25.3028ZM86.7329 22.1331C84.8057 22.1331 83.5379 20.6877 83.5379 18.6844C83.5379 16.6812 84.8057 15.2358 86.7329 15.2358C88.6601 15.2358 89.928 16.6812 89.928 18.6844C89.928 20.6877 88.6601 22.1331 86.7329 22.1331Z" fill="#000000"/>
<path d="M97.9711 10.2657C99.2136 10.2657 100.203 9.27679 100.203 8.05962C100.203 6.84246 99.2136 5.85352 97.9711 5.85352C96.7793 5.85352 95.765 6.84246 95.765 8.05962C95.765 9.27679 96.7793 10.2657 97.9711 10.2657ZM96.2467 25.0238H99.7207V12.3451H96.2467V25.0238Z" fill="#000000"/>
<path d="M102.803 25.0238H106.277V18.8366C106.277 16.4023 107.469 15.2358 109.092 15.2358C110.537 15.2358 111.323 16.3515 111.323 18.1773V25.0238H114.797V17.5941C114.797 14.2976 112.971 12.0661 109.903 12.0661C108.255 12.0661 106.962 12.7761 106.277 13.7904V12.3451H102.803V25.0238Z" fill="#000000"/>
<path d="M123.638 21.7274C121.888 21.7274 120.417 20.4088 120.417 18.4816C120.417 16.5291 121.888 15.2358 123.638 15.2358C125.387 15.2358 126.858 16.5291 126.858 18.4816C126.858 20.4088 125.387 21.7274 123.638 21.7274ZM123.232 30.5771C127.112 30.5771 130.053 28.5993 130.053 24.0349V12.3451H126.579V13.7651C125.895 12.7761 124.525 12.0661 122.902 12.0661C119.58 12.0661 116.918 14.9062 116.918 18.4816C116.918 22.0316 119.58 24.8717 122.902 24.8717C124.525 24.8717 125.895 24.1363 126.579 23.1981V24.0602C126.579 26.0889 125.235 27.5342 123.181 27.5342C121.761 27.5342 120.341 27.0524 119.225 25.9621L117.324 28.5485C118.769 29.9432 121.026 30.5771 123.232 30.5771Z" fill="#000000"/>
<path d="M137.398 25.0238H140.669L148.125 7.01996H144.067L139.047 19.5212L133.95 7.01996H129.969L137.398 25.0238Z" fill="#000000"/>
<path d="M151.312 10.2657C152.555 10.2657 153.544 9.27679 153.544 8.05962C153.544 6.84246 152.555 5.85352 151.312 5.85352C150.12 5.85352 149.106 6.84246 149.106 8.05962C149.106 9.27679 150.12 10.2657 151.312 10.2657ZM149.588 25.0238H153.062V12.3451H149.588V25.0238Z" fill="#000000"/>
<path d="M162.052 25.3028C164.715 25.3028 166.744 24.187 167.935 22.4627L165.349 20.5355C164.766 21.4231 163.675 22.1331 162.078 22.1331C160.404 22.1331 158.908 21.1948 158.705 19.4959H168.189C168.265 18.9634 168.24 18.6084 168.24 18.3041C168.24 14.1708 165.324 12.0661 162.002 12.0661C158.147 12.0661 155.333 14.9315 155.333 18.6844C155.333 22.6909 158.274 25.3028 162.052 25.3028ZM158.832 17.1376C159.162 15.5908 160.607 14.9315 161.9 14.9315C163.193 14.9315 164.461 15.6162 164.766 17.1376H158.832Z" fill="#000000"/>
<path d="M181.255 25.0238H184.703L188.887 12.3451H185.16L182.776 20.4595L180.19 12.3451H177.527L174.966 20.4595L172.557 12.3451H168.855L173.064 25.0238H176.513L178.871 17.8223L181.255 25.0238Z" fill="#000000"/>
<path fill-rule="evenodd" clip-rule="evenodd" d="M14 25H7V14H0V7H14V25ZM35.5 7L28 25H20L27.5 7H35.5ZM20 15C22.2091 15 24 13.2091 24 11C24 8.79086 22.2091 7 20 7C17.7909 7 16 8.79086 16 11C16 13.2091 17.7909 15 20 15Z" fill="#000000"/>
</svg>
