<?xml version="1.0" standalone="no"?>
<!DOCTYPE svg PUBLIC "-//W3C//DTD SVG 20010904//EN"
 "http://www.w3.org/TR/2001/REC-SVG-20010904/DTD/svg10.dtd">
<svg version="1.0" xmlns="http://www.w3.org/2000/svg"
 width="576.000000pt" height="576.000000pt" viewBox="0 0 576.000000 576.000000"
 preserveAspectRatio="xMidYMid meet">
<metadata>
Created by potrace 1.14, written by Peter Selinger 2001-2017
</metadata>
<g transform="translate(0.000000,576.000000) scale(0.100000,-0.100000)"
fill="#000000" stroke="none">
<path d="M38 4322 l-38 -3 0 -560 c0 -598 -2 -567 42 -560 13 1 63 2 128 1 36
-1 70 0 75 1 6 1 14 1 18 0 4 -1 36 -1 70 -1 34 0 69 1 77 1 8 0 46 -1 83 -2
37 -1 70 0 72 2 2 2 38 2 80 -1 42 -3 78 -2 80 1 2 3 23 3 47 -1 24 -3 62 -3
85 1 24 3 45 3 48 1 3 -3 35 -4 73 -3 37 1 74 2 82 2 8 -1 25 -1 38 -1 19 0
22 -5 22 -33 -1 -17 0 -69 2 -115 2 -45 1 -82 -2 -82 -3 0 -5 -45 -5 -100 0
-55 4 -100 8 -100 5 0 6 -4 2 -9 -5 -10 -6 -36 -5 -186 1 -44 0 -84 0 -90 -4
-28 1 -178 6 -186 3 -5 2 -9 -3 -9 -4 0 -7 -28 -5 -62 4 -82 3 -58 3 -268 0
-224 0 -192 0 -352 0 -73 0 -141 0 -151 0 -15 8 -18 42 -17 23 1 45 1 50 0 10
-2 95 -2 105 0 4 2 11 2 16 1 5 -1 98 -2 205 -1 108 0 205 1 216 1 11 0 67 0
125 0 58 0 110 0 115 0 6 0 26 0 45 0 19 0 46 -1 60 -2 14 0 32 0 40 0 8 0 34
1 57 1 50 1 50 0 43 132 -3 55 -3 101 -1 103 2 3 3 35 2 72 -1 37 -2 75 -2 83
0 8 0 56 0 105 0 111 0 99 3 168 2 31 0 57 -3 57 -3 0 -3 20 1 45 4 25 4 48 0
50 -4 3 -4 22 0 44 4 22 4 45 -1 52 -4 7 -6 16 -4 19 5 9 7 53 5 165 -1 50 -1
95 0 100 1 6 1 39 0 75 0 36 -1 70 -1 75 0 6 1 63 2 128 1 65 -1 120 -3 123
-3 2 -2 22 2 42 4 21 4 47 0 58 -4 10 -4 30 0 43 3 14 3 44 0 68 -4 24 -4 43
-1 43 5 0 5 291 1 440 -1 25 -2 206 -1 225 0 6 2 36 3 68 2 31 1 57 -2 57 -3
0 -5 25 -5 55 0 30 2 55 5 55 4 0 4 38 1 118 -1 8 -14 12 -33 12 -80 -1 -194
-2 -203 -1 -26 2 -111 2 -120 1 -5 -1 -14 -2 -19 -1 -7 2 -212 2 -416 0 -25 0
-303 0 -325 0 -11 0 -103 0 -205 0 -102 0 -189 0 -195 0 -36 2 -112 2 -120 1
-5 -1 -14 -2 -19 -1 -5 1 -100 2 -210 1 -210 -1 -286 0 -295 3 -3 1 -23 1 -43
-1z"/>
<path d="M4463 4320 c-34 -3 -63 -7 -66 -10 -2 -3 -64 -149 -137 -325 -73
-176 -139 -333 -146 -350 -7 -16 -43 -102 -79 -190 -37 -88 -72 -171 -78 -185
-5 -14 -11 -29 -13 -35 -1 -5 -66 -161 -143 -345 -78 -184 -141 -341 -141
-347 0 -7 -4 -13 -10 -13 -5 0 -10 -6 -10 -14 0 -12 -18 -59 -55 -141 -19 -41
-38 -89 -39 -95 -1 -5 -9 -24 -57 -135 -9 -22 -45 -107 -78 -190 -34 -82 -68
-162 -77 -177 -8 -16 -12 -28 -9 -28 3 0 -3 -17 -13 -37 -18 -33 -33 -68 -36
-83 -1 -3 -8 -16 -16 -30 -7 -14 -13 -26 -12 -28 1 -1 -5 -19 -14 -40 -38 -89
-38 -84 3 -82 21 1 43 1 48 0 6 -1 13 -2 16 -2 20 2 154 2 207 0 34 -2 62 1
62 5 0 5 4 6 9 3 8 -5 158 -10 186 -6 6 0 46 1 90 0 150 -1 176 0 186 5 5 4 9
3 9 -2 0 -4 43 -6 95 -3 52 3 105 2 117 -1 13 -3 40 -2 60 2 21 3 40 4 43 1 3
-3 29 -5 58 -3 56 3 60 6 88 76 44 108 173 415 190 452 10 24 19 45 19 48 0 3
9 24 19 48 16 36 30 70 36 87 4 11 27 67 40 95 8 16 48 113 90 215 42 102 83
199 90 215 7 17 23 55 35 85 12 30 28 69 35 85 8 17 23 53 34 80 11 28 27 67
35 87 9 21 16 40 16 43 -1 3 8 22 19 43 19 37 33 71 35 84 1 3 4 10 9 14 4 4
7 16 7 26 0 10 5 18 10 18 6 0 10 6 10 13 0 11 19 59 83 207 6 14 11 27 11 30
2 7 115 277 140 335 13 28 31 73 41 100 11 28 25 60 33 73 8 12 12 22 9 22 -5
0 6 28 68 165 57 127 57 136 8 135 -48 -1 -415 -2 -428 -1 -36 2 -112 2 -120
1 -5 -1 -14 -2 -19 -1 -5 1 -98 2 -205 1 -237 -1 -214 -1 -281 2 -30 2 -83 1
-117 -2z"/>
<path d="M3060 4303 c-76 -19 -72 -18 -97 -31 -13 -7 -23 -10 -23 -7 0 3 -18
-6 -40 -20 -22 -14 -42 -25 -45 -25 -29 0 -179 -163 -217 -235 -58 -112 -73
-173 -72 -305 0 -134 15 -194 71 -303 33 -63 130 -174 193 -221 23 -17 142
-77 165 -83 45 -12 151 -31 157 -27 3 2 9 0 13 -6 4 -6 9 -8 13 -6 4 2 36 7
72 10 93 8 158 24 205 49 11 6 22 11 25 12 22 1 116 70 171 126 59 58 125 153
130 184 0 6 6 19 12 30 6 11 12 25 14 30 30 113 38 255 18 340 -4 17 -8 37
-10 45 -2 8 -4 16 -5 18 -2 1 -3 5 -4 10 -1 4 -10 24 -19 46 -9 21 -17 40 -17
42 0 2 -16 28 -36 57 -45 64 -134 157 -151 157 -7 0 -13 4 -13 9 0 5 -30 24
-67 44 -59 30 -89 42 -173 64 -42 12 -220 9 -270 -4z"/>
</g>
</svg>
