<svg xmlns="http://www.w3.org/2000/svg" width="42" height="34" viewBox="0 0 42 34"><path fill-rule="evenodd" d="M31.54 10.9c1.87-.04 3.83-.69 6.09-2 .6-.96 1.07-1.88 1.43-2.72l1.83-.53a22.86 22.86 0 0 1-2.1 4.22c.32 4.81-1.62 9.8-4.93 13.6-3.4 3.9-8.31 6.64-13.84 6.64-1.52 0-3.05-.12-4.57-.29.92-1.06 1.83-2.13 2.26-3.49-2.15.9-4.41 1.62-6.71 2.01C6.4 25.96 1.47 21.97.78 16.48 4.6 9.76 12.46 6.2 20.04 7.2a9.9 9.9 0 0 0 4.76 5.08c-.15-1.27-.1-2.55-.1-3.82 2.11 1.3 4.27 2.51 6.84 2.45Zm4.3.56a33.3 33.3 0 0 1-9.21 7.86 2.5 2.5 0 0 0-3.9-.65l-4.98-3.29a2.53 2.53 0 0 0-2.44-3 2.53 2.53 0 0 0-2.47 2.9l-7.92 6.47a12.31 12.31 0 0 1-2.57-4.97C5.88 11.2 12.39 7.85 19 8.58c1.6 3.42 4.86 4.9 8.02 6.49-.38-1.32-.75-2.6-.8-3.98a11 11 0 0 0 5.36 1.32c1.4-.04 2.8-.36 4.26-.95Zm-8.95 9.44a34.82 34.82 0 0 0 10.4-8.85 18.38 18.38 0 0 1-4.56 10.43 17.68 17.68 0 0 1-14.41 6.1c.9-1.5 1.1-2.98 1.1-4.67a35.5 35.5 0 0 1-8.18 2.87 21.29 21.29 0 0 1-5.32-3.91l7.63-6.22a2.5 2.5 0 0 0 3.47.04l4.96 3.29A2.53 2.53 0 0 0 24.43 23a2.5 2.5 0 0 0 2.46-2.1Z"/></svg>